<svg width="22" height="24" viewBox="0 0 22 24" fill="none" xmlns="http://www.w3.org/2000/svg">
<path fill-rule="evenodd" clip-rule="evenodd" d="M10.9662 0C14.8787 0 18.1456 2.98343 18.4999 6.87988L19.0424 12.8477C19.09 13.3716 19.4053 13.8335 19.8758 14.0688L19.8801 14.0709C20.9336 14.5977 21.5991 15.6744 21.5991 16.8523V17.3165C21.5991 18.8265 20.3749 20.0506 18.8649 20.0506H14.3077V20.6582C14.3077 22.5038 12.8115 24 10.9659 24C9.12032 24 7.62415 22.5038 7.62415 20.6582V20.0506H3.06743C1.55738 20.0506 0.333252 18.8265 0.333252 17.3165V16.8523C0.333252 15.6744 0.998733 14.5977 2.05225 14.0709L2.05651 14.0688C2.52702 13.8335 2.84232 13.3716 2.88995 12.8477L3.43247 6.87988C3.7867 2.98343 7.05365 0 10.9662 0ZM9.44694 20.0506V20.6582C9.44694 21.4971 10.127 22.1772 10.9659 22.1772C11.8048 22.1772 12.4849 21.4971 12.4849 20.6582V20.0506H9.44694ZM10.9661 1.82275C7.99637 1.82275 5.51661 4.0873 5.24774 7.04487L4.70521 13.0127C4.60044 14.1652 3.90678 15.1815 2.87165 15.6991C2.43141 15.9192 2.15601 16.3648 2.15601 16.8523V17.3164C2.15601 17.8198 2.56405 18.2278 3.0674 18.2278H18.8649C19.3682 18.2278 19.7763 17.8198 19.7763 17.3164V16.8523C19.7763 16.3648 19.5009 15.9192 19.0649 15.7012C18.0255 15.1815 17.3318 14.1652 17.227 13.0127L16.6845 7.04487C16.4157 4.0873 13.9359 1.82275 10.9661 1.82275Z" fill="#2A2B30"/>
</svg>
