<svg width="16" height="18" viewBox="0 0 16 18" fill="none" xmlns="http://www.w3.org/2000/svg">
<path fill-rule="evenodd" clip-rule="evenodd" d="M7.97468 0C10.9091 0 13.3593 2.23757 13.625 5.15991L14.0318 9.63575C14.0676 10.0287 14.304 10.3751 14.6569 10.5516L14.6601 10.5532C15.4503 10.9482 15.9494 11.7558 15.9494 12.6392V12.9873C15.9494 14.1199 15.0313 15.038 13.8987 15.038H10.4808V15.4937C10.4808 16.8779 9.35872 18 7.97451 18C6.5903 18 5.46818 16.8779 5.46818 15.4937V15.038H2.05063C0.9181 15.038 0 14.1199 0 12.9873V12.6392C0 11.7558 0.499111 10.9482 1.28925 10.5532L1.29244 10.5516C1.64533 10.3751 1.8818 10.0287 1.91752 9.63575L2.32442 5.15991C2.59008 2.23757 5.0403 0 7.97468 0ZM6.83527 15.038V15.4937C6.83527 16.1229 7.34532 16.6329 7.97451 16.6329C8.60369 16.6329 9.11375 16.1229 9.11375 15.4937V15.038H6.83527ZM7.97466 1.36707C5.74734 1.36707 3.88752 3.06548 3.68587 5.28365L3.27897 9.7595C3.20039 10.6239 2.68015 11.3861 1.9038 11.7743C1.57362 11.9394 1.36707 12.2736 1.36707 12.6392V12.9873C1.36707 13.3648 1.6731 13.6709 2.05061 13.6709H13.8987C14.2762 13.6709 14.5823 13.3648 14.5823 12.9873V12.6392C14.5823 12.2736 14.3757 11.9394 14.0487 11.7759C13.2692 11.3861 12.7489 10.6239 12.6703 9.7595L12.2635 5.28365C12.0618 3.06548 10.202 1.36707 7.97466 1.36707Z" fill="#2A2B30"/>
</svg>
