<svg width="34" height="34" viewBox="0 0 34 34" fill="none" xmlns="http://www.w3.org/2000/svg">
<path fill-rule="evenodd" clip-rule="evenodd" d="M16.9999 0.333252C26.2047 0.333252 33.6666 7.79517 33.6666 16.9999C33.6666 26.2047 26.2047 33.6666 16.9999 33.6666C7.79517 33.6666 0.333252 26.2047 0.333252 16.9999C0.333252 7.79517 7.79517 0.333252 16.9999 0.333252ZM16.9999 1.99992C8.71565 1.99992 1.99992 8.71565 1.99992 16.9999C1.99992 25.2842 8.71565 31.9999 16.9999 31.9999C25.2842 31.9999 31.9999 25.2842 31.9999 16.9999C31.9999 8.71565 25.2842 1.99992 16.9999 1.99992ZM16.9999 4.52655C17.4182 4.52655 17.696 4.80656 17.8333 5.36659V17.5214L23.3682 23.1648C23.6304 23.6883 23.6304 24.0811 23.3682 24.3433C23.1061 24.6054 22.7132 24.6054 22.1897 24.3433L16.6547 18.6999L16.1666 18.1764V5.36659C16.3039 4.80656 16.5816 4.52655 16.9999 4.52655Z" fill="#2A2B30"/>
</svg>
