<svg width="30" height="29" viewBox="0 0 30 29" fill="none" xmlns="http://www.w3.org/2000/svg">
<path fill-rule="evenodd" clip-rule="evenodd" d="M28.3333 15.6667V25.6667C28.3333 27.5077 26.841 29.0001 25 29.0001H5C3.15905 29.0001 1.66667 27.5077 1.66667 25.6667V15.6667H3.33333V25.6667C3.33333 26.5872 4.07953 27.3334 5 27.3334H14.1667V14.0001H0V9.00008C0 7.15913 1.49238 5.66675 3.33333 5.66675H5.41381C4.89276 4.75515 4.84263 3.61882 5.38445 2.6295C5.6 2.23592 5.88847 1.88317 6.2358 1.58847C7.81783 0.246146 10.2364 0.386413 11.6378 1.90177L15 5.53745L18.3622 1.90177C19.7636 0.386413 22.1822 0.246146 23.7642 1.58847C24.1115 1.88317 24.4 2.23592 24.6155 2.6295C25.1574 3.61882 25.1072 4.75515 24.5862 5.66675H26.6667C28.5076 5.66675 30 7.15913 30 9.00008V14.0001H15.8333V27.3334H25C25.9205 27.3334 26.6667 26.5872 26.6667 25.6667V15.6667H28.3333ZM14.1667 7.33341H3.33333C2.41286 7.33341 1.66667 8.07961 1.66667 9.00008V12.3334H14.1667V7.33341ZM26.6667 7.33341H15.8333V12.3334H28.3333V9.00008C28.3333 8.07961 27.5871 7.33341 26.6667 7.33341ZM8.33074 5.66675H12.9638L10.3785 2.74819C9.58255 1.84968 8.20895 1.76651 7.31043 2.56243C7.11317 2.73716 6.94933 2.94632 6.82691 3.17969C6.39123 4.01023 6.71132 5.03671 7.54186 5.47239C7.78522 5.60005 8.05593 5.66675 8.33074 5.66675ZM21.6693 5.66675C21.9441 5.66675 22.2148 5.60005 22.4581 5.47239C23.2887 5.03671 23.6088 4.01023 23.1731 3.17969C23.0507 2.94632 22.8868 2.73716 22.6896 2.56243C21.7911 1.76651 20.4174 1.84968 19.6215 2.74819L17.0362 5.66675H21.6693Z" fill="#2A2B30"/>
</svg>
