<svg width="24" height="22" viewBox="0 0 24 22" fill="none" xmlns="http://www.w3.org/2000/svg">
<path fill-rule="evenodd" clip-rule="evenodd" d="M20.4092 4.10011C18.4793 2.08462 15.4061 1.90691 13.2754 3.68722L11.9997 4.75349L10.724 3.68722C8.5933 1.90691 5.5201 2.08462 3.59019 4.10011C1.62461 6.15284 1.50539 9.39741 3.34767 11.4916C4.9505 13.3156 6.81826 15.3353 8.49955 16.8922C9.34224 17.6722 10.1146 18.3149 10.7678 18.7566C11.4729 19.2322 11.8672 19.3525 11.9997 19.3525C12.1322 19.3525 12.5265 19.2322 13.2316 18.7566C13.8848 18.3149 14.6572 17.6722 15.4998 16.8922C17.1811 15.3353 19.0489 13.3156 20.6517 11.4916C22.493 9.39741 22.3748 6.15284 20.4092 4.10011ZM12.002 2.02499C14.9448 -0.432122 19.1857 -0.187369 21.8503 2.5943C24.5475 5.41216 24.7717 9.95286 22.153 12.9314C20.5338 14.7734 18.611 16.856 16.8523 18.4852C15.975 19.2982 15.115 20.0186 14.3375 20.5443C13.613 21.0338 12.7785 21.4807 12 21.4807C11.2215 21.4807 10.387 21.0338 9.6625 20.5443C8.88503 20.0186 8.02502 19.2982 7.1477 18.4852C5.38896 16.856 3.46618 14.7734 1.84705 12.9314C-0.771689 9.95286 -0.547517 5.41216 2.14968 2.5943C4.81427 -0.187369 9.05519 -0.432122 11.998 2.02499L12 2.02711L12.002 2.02499Z" fill="#2A2B30"/>
</svg>
