<svg width="18" height="16" viewBox="0 0 18 16" fill="none" xmlns="http://www.w3.org/2000/svg">
<path fill-rule="evenodd" clip-rule="evenodd" d="M15.3069 2.82511C13.8595 1.31349 11.5546 1.18021 9.95657 2.51544L8.99976 3.31515L8.04296 2.51544C6.44497 1.18021 4.14007 1.31349 2.69263 2.82511C1.21845 4.36466 1.12903 6.79809 2.51075 8.36877C3.71287 9.73672 5.11369 11.2515 6.37466 12.4192C7.00667 13.0042 7.58595 13.4862 8.07582 13.8174C8.60466 14.1742 8.90041 14.2644 8.99976 14.2644C9.09911 14.2644 9.39487 14.1742 9.92371 13.8174C10.4136 13.4862 10.9929 13.0042 11.6249 12.4192C12.8858 11.2515 14.2867 9.73672 15.4888 8.36877C16.8697 6.79809 16.7811 4.36466 15.3069 2.82511ZM9.00153 1.2688C11.2086 -0.574031 14.3893 -0.390466 16.3877 1.69579C18.4106 3.80918 18.5788 7.2147 16.6147 9.44861C15.4004 10.8301 13.9583 12.392 12.6392 13.6139C11.9812 14.2237 11.3362 14.764 10.7531 15.1583C10.2098 15.5254 9.58387 15.8606 9 15.8606C8.41613 15.8606 7.79024 15.5254 7.24687 15.1583C6.66377 14.764 6.01877 14.2237 5.36077 13.6139C4.04172 12.392 2.59964 10.8301 1.38529 9.44861C-0.578767 7.2147 -0.410638 3.80918 1.61226 1.69579C3.6107 -0.390466 6.7914 -0.574031 8.99847 1.2688L9 1.2704L9.00153 1.2688Z" fill="#2A2B30"/>
</svg>
