<svg width="28" height="26" viewBox="0 0 28 26" fill="none" xmlns="http://www.w3.org/2000/svg">
<path fill-rule="evenodd" clip-rule="evenodd" d="M14 3.55339C15.4533 1.84672 17.68 0.766724 20 0.766724C24.1066 0.766724 27.3333 3.99339 27.3333 8.10006C27.3333 13.1359 22.8074 17.24 15.9502 23.4581L15.9333 23.4734L14 25.2334L12.0666 23.4867L12.014 23.4389C5.1768 17.2257 0.666626 13.1272 0.666626 8.10006C0.666626 3.99339 3.89329 0.766724 7.99996 0.766724C10.32 0.766724 12.5466 1.84672 14 3.55339ZM14 21.6334L14.1333 21.5001C20.48 15.7534 24.6666 11.9534 24.6666 8.10006C24.6666 5.43339 22.6666 3.43339 20 3.43339C17.9466 3.43339 15.9466 4.75339 15.2533 6.58006H12.76C12.0533 4.75339 10.0533 3.43339 7.99996 3.43339C5.33329 3.43339 3.33329 5.43339 3.33329 8.10006C3.33329 11.9534 7.51996 15.7534 13.8666 21.5001L14 21.6334Z" fill="#FE6767"/>
</svg>
