<svg width="34" height="30" viewBox="0 0 34 30" fill="none" xmlns="http://www.w3.org/2000/svg">
<path fill-rule="evenodd" clip-rule="evenodd" d="M26.3863 3.97619H31.877C32.0852 3.98448 32.0852 3.98448 32.2896 4.02558C33.2504 4.25878 33.8447 5.24461 33.6186 6.23201C32.3688 11.6349 29.2056 15.0012 24.2916 16.0817L23.5572 16.2432C22.6865 19.4404 20.0385 21.6667 17.003 21.6667C13.9681 21.6667 11.3204 19.441 10.4493 16.2447L9.70823 16.0817C4.79423 15.0012 1.63105 11.6349 0.381256 6.23201C0.155136 5.24461 0.749413 4.25878 1.71023 4.02558C1.91466 3.98448 1.91466 3.98448 2.12284 3.97619H7.61798L7.13332 1.88293L6.95174 0.935945C6.87161 0.518068 7.10978 0.106722 7.48371 0.0171767C7.53139 0.00575752 7.58002 0 7.62879 0H26.3967C26.7791 0 27.0891 0.346446 27.0891 0.773809C27.0891 0.828309 27.084 0.882656 27.0738 0.935945L26.9944 1.35001L26.3863 3.97619ZM26.0004 5.64286L23.9614 14.4497C28.2358 13.5058 30.9271 10.6385 32.0353 5.84774C32.0558 5.75824 32.0018 5.66854 31.9145 5.64734C31.9022 5.64436 31.8896 5.64286 31.877 5.64286H26.0004ZM10.0432 14.4508L8.00386 5.64286H2.12284C2.11023 5.64286 2.09765 5.64436 2.08538 5.64734C1.99804 5.66854 1.94402 5.75824 1.96452 5.84774C3.07312 10.6402 5.76601 13.5079 10.0432 14.4508ZM25.2103 1.66667H8.79399L11.895 15.0653L11.9399 15.2997C12.4718 18.0737 14.604 20 17.003 20C19.4021 20 21.5343 18.0737 22.0639 15.3118L22.1225 15.0032L25.2103 1.66667ZM20.7292 22.6448L23.7876 26.6667V29.1667C23.7876 29.6269 23.4114 30 22.9475 30H11.1733C10.7094 30 10.3333 29.6269 10.3333 29.1667V26.6667L13.3916 22.6448C13.9201 22.8515 14.4696 23.0145 15.0349 23.1299L12.0134 27.0833V28.3333H22.1074V27.0833L19.0859 23.1299C19.6513 23.0145 20.2007 22.8515 20.7292 22.6448Z" fill="#2A2B30"/>
</svg>
