<svg width="32" height="30" viewBox="0 0 32 30" fill="none" xmlns="http://www.w3.org/2000/svg">
<path fill-rule="evenodd" clip-rule="evenodd" d="M8.78381 29.5804C7.75753 30.3041 6.33222 30.0682 5.60029 29.0534C5.18426 28.4767 5.06629 27.7402 5.2817 27.0646L7.88492 18.8991L0.924811 13.8061C-0.0884382 13.0646 -0.301952 11.6514 0.447914 10.6495C0.87413 10.0801 1.54605 9.74158 2.2625 9.73536L10.921 9.66009L13.669 1.54116C14.069 0.359216 15.3624 -0.278279 16.5578 0.117281C17.2372 0.342113 17.7704 0.869357 17.9978 1.54116L20.7458 9.66009L29.4043 9.73536C30.6648 9.74631 31.6777 10.7655 31.6667 12.0119C31.6603 12.7203 31.3179 13.3847 30.742 13.8061L23.7819 18.8991L26.3851 27.0646C26.7641 28.2533 26.0967 29.5207 24.8945 29.8954C24.2111 30.1084 23.4663 29.9918 22.883 29.5804L15.8334 24.6092L8.78381 29.5804ZM15.8334 22.5698L23.8435 28.2183C24.003 28.3308 24.2095 28.3632 24.3985 28.3042C24.7213 28.2037 24.8942 27.8752 24.7972 27.5708L21.8296 18.2625L29.7578 12.4611C29.9099 12.3497 29.9984 12.178 30.0001 11.9972C30.0029 11.6756 29.734 11.405 29.3898 11.402L19.5469 11.3164L16.4191 2.0755C16.3599 1.90057 16.2182 1.76048 16.0342 1.69957C15.7053 1.59075 15.353 1.76443 15.2477 2.0755L12.1199 11.3164L2.27699 11.402C2.07948 11.4037 1.89614 11.496 1.78223 11.6482C1.58889 11.9065 1.64329 12.2666 1.90903 12.4611L9.8372 18.2625L6.86962 27.5708C6.8148 27.7428 6.84475 27.9297 6.95201 28.0784C7.14874 28.3512 7.5425 28.4164 7.82331 28.2183L15.8334 22.5698Z" fill="#2A2B30"/>
</svg>
