<svg width="24" height="24" viewBox="0 0 24 24" fill="none" xmlns="http://www.w3.org/2000/svg">
<path fill-rule="evenodd" clip-rule="evenodd" d="M10.1873 1.12765C10.9279 -0.375884 13.0721 -0.375884 13.8127 1.12765L16.4338 6.4446L22.2752 7.3156C23.9222 7.56113 24.582 9.58202 23.3968 10.7521L19.1701 14.9262L20.1533 20.7989C20.4301 22.448 18.6982 23.6999 17.2199 22.9209L12 20.1745L6.78006 22.9209C5.30178 23.6999 3.56989 22.448 3.84675 20.7989L4.82991 14.9262L0.60323 10.7521C-0.582018 9.58202 0.0778005 7.56113 1.72482 7.3156L7.56517 6.4446L10.1873 1.12765ZM11.9999 2.02083L8.90996 8.28658L2.02279 9.3142L6.99618 14.226L5.83922 21.1323L11.9999 17.8898L18.1605 21.1323L17.0036 14.226L21.977 9.3142L15.0898 8.28658L11.9999 2.02083Z" fill="#2A2B30"/>
</svg>
